# xmcd CD database file
#
# Track frame offsets:
#	150
#	26731
#	57344
#	80218
#	118763
#	161072
#	190076
#	215459
#
# Disc length: 3408 seconds
#
# Revision: 0
# Processed by: cddbd v1.5.1PL2 Copyright (c) Steve Scherf et al.
# Submitted via: CDex 1.51
#
DISCID=710d4e08
DTITLE=Kidzen - Kidzen
DYEAR=2006
DGENRE=Jazz
TTITLE0=Um, Ah!
TTITLE1=Sweet Happening
TTITLE2=Burn
TTITLE3=Supersticious
TTITLE4=Superpeople
TTITLE5=Mad Stream
TTITLE6=Mu, Ah!
TTITLE7=Calm
EXTD=YEAR: 2006
EXTT0=
EXTT1=
EXTT2=
EXTT3=
EXTT4=
EXTT5=
EXTT6=
EXTT7=
PLAYORDER=
